{
  "accessors": [
    {
      "bufferView": 3,
      "componentType": 5126,
      "count": 3462,
      "max": [
        183.46018981933594,
        614.9319458007813,
        24.037330627441406
      ],
      "min": [
        -137.5807342529297,
        92.55184936523438,
        -106.04206085205078
      ],
      "type": "VEC3"
    },
    {
      "bufferView": 3,
      "byteOffset": 41544,
      "componentType": 5126,
      "count": 3462,
      "max": [
        1.0,
        1.0,
        1.0
      ],
      "min": [
        -1.0,
        -1.0,
        -1.0
      ],
      "type": "VEC3"
    },
    {
      "bufferView": 4,
      "componentType": 5126,
      "count": 3462,
      "max": [
        1.0,
        1.0,
        1.0,
        1.0
      ],
      "min": [
        -1.0,
        -1.0,
        -1.0,
        -1.0
      ],
      "type": "VEC4"
    },
    {
      "bufferView": 2,
      "componentType": 5126,
      "count": 3462,
      "max": [
        1.0,
        0.9994394779205322
      ],
      "min": [
        0.0,
        0.0
      ],
      "type": "VEC2"
    },
    {
      "bufferView": 1,
      "componentType": 5125,
      "count": 13980,
      "type": "SCALAR"
    },
    {
      "bufferView": 5,
      "componentType": 5126,
      "count": 8,
      "max": [
        1.0,
        0.0,
        0.0,
        0.0,
        0.0,
        1.0,
        1.0,
        0.0,
        0.0,
        0.0,
        1.0,
        0.0,
        74.42743682861328,
        0.0,
        0.0,
        1.0
      ],
      "min": [
        1.0,
        0.0,
        0.0,
        0.0,
        0.0,
        6.123234262925839e-17,
        0.0,
        0.0,
        0.0,
        -1.0,
        6.123234262925839e-17,
        0.0,
        -112.23939514160156,
        -41.00236129760742,
        -469.89849853515625,
        1.0
      ],
      "type": "MAT4"
    },
    {
      "bufferView": 0,
      "componentType": 5123,
      "count": 3462,
      "type": "VEC4"
    },
    {
      "bufferView": 4,
      "byteOffset": 55392,
      "componentType": 5126,
      "count": 3462,
      "max": [
        1.0,
        0.0,
        0.0,
        0.0
      ],
      "min": [
        1.0,
        0.0,
        0.0,
        0.0
      ],
      "type": "VEC4"
    },
    {
      "bufferView": 6,
      "componentType": 5126,
      "count": 91,
      "max": [
        3.3333332538604736
      ],
      "min": [
        0.0
      ],
      "type": "SCALAR"
    },
    {
      "bufferView": 8,
      "componentType": 5126,
      "count": 91,
      "max": [
        0.5982691049575806,
        0.0,
        0.0,
        1.0
      ],
      "min": [
        0.0,
        0.0,
        0.0,
        0.8012952208518982
      ],
      "type": "VEC4"
    },
    {
      "bufferView": 6,
      "byteOffset": 364,
      "componentType": 5126,
      "count": 80,
      "max": [
        3.3333332538604736
      ],
      "min": [
        0.0
      ],
      "type": "SCALAR"
    },
    {
      "bufferView": 7,
      "componentType": 5126,
      "count": 80,
      "max": [
        -97.3671646118164,
        3.484283447265625,
        197.4239044189453
      ],
      "min": [
        -97.3671646118164,
        -2.2569351196289063,
        190.42906188964844
      ],
      "type": "VEC3"
    },
    {
      "bufferView": 6,
      "byteOffset": 684,
      "componentType": 5126,
      "count": 89,
      "max": [
        3.3333332538604736
      ],
      "min": [
        0.0
      ],
      "type": "SCALAR"
    },
    {
      "bufferView": 8,
      "byteOffset": 1456,
      "componentType": 5126,
      "count": 89,
      "max": [
        0.8908183574676514,
        0.2031679004430771,
        0.02640466019511223,
        1.0
      ],
      "min": [
        -0.8295549154281616,
        -0.2887483835220337,
        -0.04360320791602135,
        -0.49266624450683594
      ],
      "type": "VEC4"
    },
    {
      "bufferView": 6,
      "byteOffset": 1040,
      "componentType": 5126,
      "count": 53,
      "max": [
        3.3333332538604736
      ],
      "min": [
        0.0
      ],
      "type": "SCALAR"
    },
    {
      "bufferView": 7,
      "byteOffset": 960,
      "componentType": 5126,
      "count": 53,
      "max": [
        89.29966735839844,
        -2.256927490234375,
        197.4239044189453
      ],
      "min": [
        89.29966735839844,
        -2.2569427490234375,
        197.423828125
      ],
      "type": "VEC3"
    },
    {
      "bufferView": 6,
      "byteOffset": 1252,
      "componentType": 5126,
      "count": 89,
      "max": [
        3.3333332538604736
      ],
      "min": [
        0.0
      ],
      "type": "SCALAR"
    },
    {
      "bufferView": 8,
      "byteOffset": 2880,
      "componentType": 5126,
      "count": 89,
      "max": [
        0.327371209859848,
        0.0,
        0.12389857321977615,
        1.0
      ],
      "min": [
        -6.938893903907228e-18,
        -0.11164847016334534,
        0.0,
        0.9300601482391357
      ],
      "type": "VEC4"
    },
    {
      "bufferView": 6,
      "byteOffset": 1608,
      "componentType": 5126,
      "count": 69,
      "max": [
        3.3333332538604736
      ],
      "min": [
        0.0
      ],
      "type": "SCALAR"
    },
    {
      "bufferView": 7,
      "byteOffset": 1596,
      "componentType": 5126,
      "count": 69,
      "max": [
        0.0,
        2.842170943040401e-14,
        237.8922882080078
      ],
      "min": [
        0.0,
        -1.52587890625e-05,
        237.89222717285156
      ],
      "type": "VEC3"
    },
    {
      "bufferView": 6,
      "byteOffset": 1884,
      "componentType": 5126,
      "count": 75,
      "max": [
        3.3333332538604736
      ],
      "min": [
        0.0
      ],
      "type": "SCALAR"
    },
    {
      "bufferView": 8,
      "byteOffset": 4304,
      "componentType": 5126,
      "count": 75,
      "max": [
        0.0,
        0.007513313088566065,
        0.19307442009449005,
        1.0
      ],
      "min": [
        -0.11304933577775955,
        0.0,
        0.0,
        0.9746425747871399
      ],
      "type": "VEC4"
    },
    {
      "bufferView": 6,
      "byteOffset": 2184,
      "componentType": 5126,
      "count": 75,
      "max": [
        3.3333332538604736
      ],
      "min": [
        0.0
      ],
      "type": "SCALAR"
    },
    {
      "bufferView": 8,
      "byteOffset": 5504,
      "componentType": 5126,
      "count": 75,
      "max": [
        0.30070585012435913,
        0.0,
        0.0,
        1.0
      ],
      "min": [
        0.0,
        0.0,
        0.0,
        0.9537169337272644
      ],
      "type": "VEC4"
    }
  ],
  "animations": [
    {
      "channels": [
        {
          "sampler": 0,
          "target": {
            "node": 9,
            "path": "rotation"
          }
        },
        {
          "sampler": 1,
          "target": {
            "node": 12,
            "path": "translation"
          }
        },
        {
          "sampler": 2,
          "target": {
            "node": 12,
            "path": "rotation"
          }
        },
        {
          "sampler": 3,
          "target": {
            "node": 13,
            "path": "translation"
          }
        },
        {
          "sampler": 4,
          "target": {
            "node": 13,
            "path": "rotation"
          }
        },
        {
          "sampler": 5,
          "target": {
            "node": 14,
            "path": "translation"
          }
        },
        {
          "sampler": 6,
          "target": {
            "node": 14,
            "path": "rotation"
          }
        },
        {
          "sampler": 7,
          "target": {
            "node": 11,
            "path": "rotation"
          }
        }
      ],
      "name": "Take 001",
      "samplers": [
        {
          "input": 8,
          "interpolation": "LINEAR",
          "output": 9
        },
        {
          "input": 10,
          "interpolation": "LINEAR",
          "output": 11
        },
        {
          "input": 12,
          "interpolation": "LINEAR",
          "output": 13
        },
        {
          "input": 14,
          "interpolation": "LINEAR",
          "output": 15
        },
        {
          "input": 16,
          "interpolation": "LINEAR",
          "output": 17
        },
        {
          "input": 18,
          "interpolation": "LINEAR",
          "output": 19
        },
        {
          "input": 20,
          "interpolation": "LINEAR",
          "output": 21
        },
        {
          "input": 22,
          "interpolation": "LINEAR",
          "output": 23
        }
      ]
    }
  ],
  "asset": {
    "extras": {
      "author": "Yury Misiyuk (https://sketchfab.com/Tim0)",
      "license": "CC-BY-4.0 (http://creativecommons.org/licenses/by/4.0/)",
      "source": "https://sketchfab.com/3d-models/lego-man-c93e5655b94343afa12c6b3a1a81823a",
      "title": "Lego man"
    },
    "generator": "Sketchfab-12.67.0",
    "version": "2.0"
  },
  "bufferViews": [
    {
      "buffer": 0,
      "byteLength": 27696,
      "byteStride": 8,
      "name": "shortBufferViews",
      "target": 34962
    },
    {
      "buffer": 0,
      "byteLength": 55920,
      "byteOffset": 27696,
      "name": "floatBufferViews",
      "target": 34963
    },
    {
      "buffer": 0,
      "byteLength": 27696,
      "byteOffset": 83616,
      "byteStride": 8,
      "name": "floatBufferViews",
      "target": 34962
    },
    {
      "buffer": 0,
      "byteLength": 83088,
      "byteOffset": 111312,
      "byteStride": 12,
      "name": "floatBufferViews",
      "target": 34962
    },
    {
      "buffer": 0,
      "byteLength": 110784,
      "byteOffset": 194400,
      "byteStride": 16,
      "name": "floatBufferViews",
      "target": 34962
    },
    {
      "buffer": 0,
      "byteLength": 512,
      "byteOffset": 305184,
      "name": "floatBufferViews"
    },
    {
      "buffer": 0,
      "byteLength": 2484,
      "byteOffset": 305696,
      "name": "floatBufferViews"
    },
    {
      "buffer": 0,
      "byteLength": 2424,
      "byteOffset": 308180,
      "byteStride": 12,
      "name": "floatBufferViews"
    },
    {
      "buffer": 0,
      "byteLength": 6704,
      "byteOffset": 310604,
      "byteStride": 16,
      "name": "floatBufferViews"
    }
  ],
  "buffers": [
    {
      "byteLength": 317308,
      "uri": "scene.bin"
    }
  ],
  "images": [
    {
      "uri": "textures/Scene_-_Root_baseColor.jpeg"
    },
    {
      "uri": "textures/Scene_-_Root_metallicRoughness.png"
    },
    {
      "uri": "textures/Scene_-_Root_normal.png"
    }
  ],
  "materials": [
    {
      "doubleSided": true,
      "name": "Scene_-_Root",
      "normalTexture": {
        "index": 2
      },
      "pbrMetallicRoughness": {
        "baseColorTexture": {
          "index": 0
        },
        "metallicFactor": 0.0,
        "metallicRoughnessTexture": {
          "index": 1
        }
      }
    }
  ],
  "meshes": [
    {
      "name": "Object002__0",
      "primitives": [
        {
          "attributes": {
            "JOINTS_0": 6,
            "NORMAL": 1,
            "POSITION": 0,
            "TANGENT": 2,
            "TEXCOORD_0": 3,
            "WEIGHTS_0": 7
          },
          "indices": 4,
          "material": 0,
          "mode": 4
        }
      ]
    }
  ],
  "nodes": [
    {
      "children": [
        1
      ],
      "matrix": [
        1.0,
        0.0,
        0.0,
        0.0,
        0.0,
        2.220446049250313e-16,
        -1.0,
        0.0,
        0.0,
        1.0,
        2.220446049250313e-16,
        0.0,
        0.0,
        0.0,
        0.0,
        1.0
      ],
      "name": "Sketchfab_model"
    },
    {
      "children": [
        2
      ],
      "matrix": [
        1.0,
        0.0,
        0.0,
        0.0,
        0.0,
        0.0,
        1.0,
        0.0,
        0.0,
        -1.0,
        0.0,
        0.0,
        0.0,
        0.0,
        0.0,
        1.0
      ],
      "name": "1a34b31a2e1e4f8590360ec45c750753.fbx"
    },
    {
      "children": [
        3
      ],
      "name": "Object_2"
    },
    {
      "children": [
        4
      ],
      "name": "RootNode"
    },
    {
      "children": [
        5,
        7,
        6,
        15
      ],
      "name": "Object_4"
    },
    {
      "children": [
        8
      ],
      "name": "_rootJoint"
    },
    {
      "matrix": [
        1.0,
        0.0,
        0.0,
        0.0,
        0.0,
        6.123233995736766e-17,
        -1.0,
        0.0,
        0.0,
        1.0,
        6.123233995736766e-17,
        0.0,
        22.939727783203125,
        92.5518798828125,
        -41.002403259277344,
        1.0
      ],
      "name": "Object_6"
    },
    {
      "mesh": 0,
      "name": "Object_7",
      "skin": 0
    },
    {
      "children": [
        9,
        10,
        11
      ],
      "name": "Dummy007_00",
      "rotation": [
        -0.7071068286895752,
        -0.0,
        0.0,
        0.7071068286895752
      ],
      "translation": [
        22.939727783203125,
        113.97772979736328,
        -41.00236129760742
      ]
    },
    {
      "name": "Dummy002_01",
      "translation": [
        52.322166442871094,
        0.0,
        124.9891586303711
      ]
    },
    {
      "name": "Dummy001_02",
      "translation": [
        -50.027137756347656,
        0.0,
        124.9891586303711
      ]
    },
    {
      "children": [
        12,
        13,
        14
      ],
      "name": "Dummy003_03",
      "translation": [
        0.0,
        0.0,
        118.02849578857422
      ]
    },
    {
      "name": "Dummy004_04",
      "translation": [
        -97.3671646118164,
        -2.256927490234375,
        197.42388916015625
      ]
    },
    {
      "name": "Dummy005_05",
      "translation": [
        89.29966735839844,
        -2.256927490234375,
        197.42388916015625
      ]
    },
    {
      "name": "Dummy006_06",
      "translation": [
        0.0,
        0.0,
        237.89227294921875
      ]
    },
    {
      "name": "Object002",
      "rotation": [
        -0.7071068286895752,
        -0.0,
        0.0,
        0.7071068286895752
      ],
      "translation": [
        22.939727783203125,
        92.5518798828125,
        -41.002403259277344
      ]
    }
  ],
  "samplers": [
    {
      "magFilter": 9729,
      "minFilter": 9987,
      "wrapS": 10497,
      "wrapT": 10497
    }
  ],
  "scene": 0,
  "scenes": [
    {
      "name": "Sketchfab_Scene",
      "nodes": [
        0
      ]
    }
  ],
  "skins": [
    {
      "inverseBindMatrices": 5,
      "joints": [
        5,
        8,
        9,
        10,
        11,
        12,
        13,
        14
      ],
      "skeleton": 5
    }
  ],
  "textures": [
    {
      "sampler": 0,
      "source": 0
    },
    {
      "sampler": 0,
      "source": 1
    },
    {
      "sampler": 0,
      "source": 2
    }
  ]
}
